HIERARCHY
ROOT joint_0
{
	OFFSET 0.000000 0.000000 0.000000
	CHANNELS 6 Xposition Yposition Zposition Zrotation Yrotation Xrotation 
	JOINT joint_1
	{
		OFFSET -0.613770 -1.125488 108.300049
		CHANNELS 3 Zrotation Yrotation Xrotation
		JOINT joint_2
		{
			OFFSET -10.925537 -0.900513 98.259033
			CHANNELS 3 Zrotation Yrotation Xrotation
			JOINT joint_3
			{
				OFFSET -11.287842 0.313599 98.110962
				CHANNELS 3 Zrotation Yrotation Xrotation
				JOINT joint_4
				{
					OFFSET -2.124268 2.484680 136.491943
					CHANNELS 3 Zrotation Yrotation Xrotation
					JOINT joint_5
					{
						OFFSET 16.640869 1.801270 81.862061
						CHANNELS 3 Zrotation Yrotation Xrotation
						End Site
						{
							OFFSET 0.000000 0.000000 0.000000
						}
					}
				}
				JOINT joint_6
				{
					OFFSET 0.447998 -28.248108 77.258057
					CHANNELS 3 Zrotation Yrotation Xrotation
					JOINT joint_7
					{
						OFFSET 7.918701 -130.256348 -24.086060
						CHANNELS 3 Zrotation Yrotation Xrotation
						JOINT joint_8
						{
							OFFSET 62.431885 -29.384277 -258.572021
							CHANNELS 3 Zrotation Yrotation Xrotation
							JOINT joint_9
							{
								OFFSET 53.743164 -21.907532 -238.024963
								CHANNELS 3 Zrotation Yrotation Xrotation
								End Site
								{
									OFFSET 0.000000 0.000000 0.000000
								}
							}
						}
					}
				}
				JOINT joint_10
				{
					OFFSET -2.846924 31.052063 76.130981
					CHANNELS 3 Zrotation Yrotation Xrotation
					JOINT joint_11
					{
						OFFSET 9.073730 131.055603 -18.752930
						CHANNELS 3 Zrotation Yrotation Xrotation
						JOINT joint_12
						{
							OFFSET 52.981201 29.883301 -260.613037
							CHANNELS 3 Zrotation Yrotation Xrotation
							JOINT joint_13
							{
								OFFSET 62.237793 15.935547 -236.423035
								CHANNELS 3 Zrotation Yrotation Xrotation
								End Site
								{
									OFFSET 0.000000 0.000000 0.000000
								}
							}
						}
					}
				}
			}
		}
	}
	JOINT joint_14
	{
		OFFSET 22.046143 -72.816772 -98.122925
		CHANNELS 3 Zrotation Yrotation Xrotation
		JOINT joint_15
		{
			OFFSET -23.673828 -54.692932 -469.927032
			CHANNELS 3 Zrotation Yrotation Xrotation
			JOINT joint_16
			{
				OFFSET -34.875244 -46.505249 -395.890999
				CHANNELS 3 Zrotation Yrotation Xrotation
				JOINT joint_17
				{
					OFFSET 168.486328 14.224182 -74.182999
					CHANNELS 3 Zrotation Yrotation Xrotation
					End Site
					{
						OFFSET 0.000000 0.000000 0.000000
					}
				}
			}
		}
	}
	JOINT joint_18
	{
		OFFSET -1.731934 82.408569 -92.846924
		CHANNELS 3 Zrotation Yrotation Xrotation
		JOINT joint_19
		{
			OFFSET -6.908936 32.203369 -472.535034
			CHANNELS 3 Zrotation Yrotation Xrotation
			JOINT joint_20
			{
				OFFSET -13.963135 23.196533 -399.207993
				CHANNELS 3 Zrotation Yrotation Xrotation
				JOINT joint_21
				{
					OFFSET 168.417725 19.834229 -73.041004
					CHANNELS 3 Zrotation Yrotation Xrotation
					End Site
					{
						OFFSET 0.000000 0.000000 0.000000
					}
				}
			}
		}
	}
}
MOTION
Frames: 10
Frame Time: 0.016667
-2754.122803 1071.862305 1040.647949 -5.064597 -4.652189 -2.037272 5.769517 13.654595 1.791595 1.459974 -1.662555 -0.280643 1.369816 2.457718 0.360247 -0.001807 -7.114887 0.180938 0.000000 0.000000 0.000000 6.925836 1.218506 -3.780861 -0.639027 2.828937 -0.599850 -2.207227 1.516287 -7.999877 0.000000 0.000000 0.000000 1.139321 -4.094920 -1.380964 0.231877 -4.718181 5.674943 -4.014354 -9.988807 -12.506430 0.000000 0.000000 0.000000 -0.344837 -25.082155 4.943023 -6.446081 60.282021 1.990670 -6.101084 -3.272010 -2.147484 0.000000 0.000000 0.000000 4.624052 11.209421 0.369253 2.554452 11.069195 -2.111317 1.301382 -15.153520 2.301113 0.000000 0.000000 0.000000 
-2732.324219 1073.885986 1040.387939 -4.144184 -4.155092 -1.941675 5.494796 13.502382 1.489834 1.131041 -1.682521 -0.161066 1.010882 2.441412 0.333411 0.029343 -7.243305 0.076384 0.000000 0.000000 0.000000 6.581260 0.808913 -3.736658 -0.793768 2.330678 -1.622547 -1.809648 0.968326 -6.812090 0.000000 0.000000 0.000000 0.990548 -4.862716 -1.609778 0.295304 -5.507605 6.179325 -4.151844 -11.187583 -12.788321 0.000000 0.000000 0.000000 -0.594482 -27.565856 4.969408 -6.550160 60.199183 2.871854 -5.268937 -3.695374 -1.798651 0.000000 0.000000 0.000000 4.474525 11.823800 0.226320 2.214080 11.222083 -2.142821 1.009130 -14.893634 2.160580 0.000000 0.000000 0.000000 
-2709.769775 1075.598145 1041.130005 -2.770646 -2.993642 -1.814901 4.694999 12.590988 1.098075 0.737567 -1.667814 -0.034713 0.581753 2.335223 0.304702 0.070043 -7.310642 -0.054811 0.000000 0.000000 0.000000 6.331971 0.424122 -3.533955 -0.966496 1.863164 -2.660006 -1.437179 0.331654 -5.706459 0.000000 0.000000 0.000000 0.776338 -5.501654 -1.574691 0.393431 -6.116698 6.386415 -4.245083 -12.696361 -12.916359 0.000000 0.000000 0.000000 -1.239247 -30.187122 5.098835 -6.924907 57.908852 2.735683 -5.130118 -4.090426 -1.679043 0.000000 0.000000 0.000000 3.894163 11.537830 0.038953 1.811434 11.669361 -2.115398 0.668063 -14.107650 1.939747 0.000000 0.000000 0.000000 
-2686.199951 1077.005981 1042.607056 -1.104602 -1.436937 -1.640518 3.538184 11.165589 0.695164 0.301699 -1.594745 0.077604 0.129598 2.145234 0.273419 0.119249 -7.310352 -0.210140 0.000000 0.000000 0.000000 6.101745 0.063995 -3.218088 -1.159407 1.416739 -3.715677 -1.059934 -0.386991 -4.556641 0.000000 0.000000 0.000000 0.517685 -6.057569 -1.387042 0.535756 -6.608849 6.422091 -4.296044 -14.398737 -12.919313 0.000000 0.000000 0.000000 -2.006455 -32.646740 5.273832 -7.342072 53.644024 2.038504 -5.187407 -4.264338 -1.646171 0.000000 0.000000 0.000000 3.035581 10.717336 -0.136870 1.370672 12.295164 -2.069610 0.299824 -12.852056 1.654150 0.000000 0.000000 0.000000 
-2661.074951 1078.140503 1044.342041 0.456376 0.089673 -1.464398 2.355259 9.608125 0.452873 -0.080735 -1.456907 0.123620 -0.224498 1.917230 0.253418 0.170051 -7.235969 -0.371915 0.000000 0.000000 0.000000 5.847891 -0.190972 -2.854917 -1.358480 1.073809 -4.665184 -0.704048 -1.226169 -3.467173 0.000000 0.000000 0.000000 0.255172 -6.441920 -1.157082 0.744209 -6.913832 6.409690 -4.348588 -16.361568 -12.930855 0.000000 0.000000 0.000000 -2.603004 -34.506964 5.509063 -7.577444 48.380299 1.296129 -4.969998 -4.645731 -1.508556 0.000000 0.000000 0.000000 2.168096 9.836426 -0.184560 0.997230 13.166442 -2.120354 -0.000312 -11.242829 1.357815 0.000000 0.000000 0.000000 
-2633.974365 1078.931763 1046.530029 1.715623 1.573424 -1.367937 1.221399 7.861945 0.476850 -0.361122 -1.222538 0.045057 -0.419074 1.676329 0.250795 0.214666 -7.086287 -0.506927 0.000000 0.000000 0.000000 5.550092 -0.280844 -2.422839 -1.564846 0.890263 -5.480712 -0.361411 -2.323994 -2.461754 0.000000 0.000000 0.000000 -0.027143 -6.614502 -0.881494 1.033303 -6.986187 6.349719 -4.417117 -18.657901 -13.039344 0.000000 0.000000 0.000000 -2.924546 -35.583194 6.026631 -7.493424 41.676857 0.457188 -4.366293 -5.612663 -1.188998 0.000000 0.000000 0.000000 1.398694 9.057118 -0.050605 0.750575 14.049220 -2.267908 -0.171248 -9.153119 1.059674 0.000000 0.000000 0.000000 
-2605.318604 1079.450806 1048.974976 3.035924 2.975897 -1.230772 0.139895 6.113358 0.560053 -0.690388 -0.997169 -0.028545 -0.669571 1.398385 0.278314 0.259124 -6.861103 -0.650151 0.000000 0.000000 0.000000 5.222429 -0.261317 -1.974964 -1.770912 0.815535 -6.176114 -0.033898 -3.538712 -1.502279 0.000000 0.000000 0.000000 -0.306803 -6.615705 -0.551007 1.385739 -6.869211 6.214616 -4.474130 -21.234655 -13.152342 0.000000 0.000000 0.000000 -3.038981 -35.788776 6.502024 -7.062630 33.343291 -0.465215 -3.760692 -6.058884 -0.917015 0.000000 0.000000 0.000000 0.600692 8.252024 0.169938 0.490351 15.150719 -2.468729 -0.342945 -6.561701 0.706484 0.000000 0.000000 0.000000 
-2575.824463 1079.938965 1050.615967 4.457651 3.957710 -0.951874 -0.713780 4.853109 0.526380 -1.066646 -0.909567 0.039168 -1.024193 1.141090 0.333022 0.320498 -6.595301 -0.894510 0.000000 0.000000 0.000000 4.888237 -0.231674 -1.665045 -1.943102 0.762447 -6.720541 0.244103 -4.512223 -0.629605 0.000000 0.000000 0.000000 -0.486032 -6.489825 -0.287224 1.761564 -6.644201 6.099271 -4.518547 -23.987116 -13.154590 0.000000 0.000000 0.000000 -2.914884 -35.340501 6.436859 -6.327972 25.568074 -0.951117 -3.246459 -5.727563 -0.742850 0.000000 0.000000 0.000000 -0.231653 7.382893 0.408427 0.172106 17.155250 -2.814779 -0.557369 -3.662273 0.310837 0.000000 0.000000 0.000000 
-2545.582764 1080.624634 1051.432007 5.540893 4.634204 -0.791524 -1.295979 3.770785 0.852462 -1.299612 -0.783744 0.021214 -1.212636 0.922397 0.379727 0.411603 -6.290793 -1.301331 0.000000 0.000000 0.000000 4.548794 -0.194375 -1.549284 -2.084307 0.731164 -7.143881 0.483349 -5.208120 0.193440 0.000000 0.000000 0.000000 -0.537739 -6.237649 -0.172673 2.151142 -6.328732 6.054720 -4.569828 -26.972476 -13.046080 0.000000 0.000000 0.000000 -2.387447 -34.684274 5.966989 -5.241686 19.242946 -0.678166 -2.408306 -6.134059 -0.379150 0.000000 0.000000 0.000000 -1.002440 6.255348 0.839374 -0.055743 20.140254 -3.344812 -0.621443 0.210041 -0.126073 0.000000 0.000000 0.000000 
-2514.502930 1081.279419 1051.443970 6.336224 5.065778 -0.756115 -1.698999 2.818853 1.479964 -1.405488 -0.623243 -0.091072 -1.249897 0.733631 0.425954 0.518074 -5.945675 -1.799492 0.000000 0.000000 0.000000 4.215222 -0.141909 -1.568035 -2.185245 0.726513 -7.418520 0.677289 -5.685376 0.902586 0.000000 0.000000 0.000000 -0.489331 -5.858145 -0.129820 2.540086 -5.913343 6.054248 -4.626371 -30.136388 -12.831475 0.000000 0.000000 0.000000 -1.582005 -33.731941 5.418276 -3.980703 13.785979 -0.219117 -1.484258 -7.052696 0.057563 0.000000 0.000000 0.000000 -1.757382 4.965066 1.469159 -0.229257 23.794104 -4.105661 -0.583420 4.998586 -0.618248 0.000000 0.000000 0.000000 
